<svg width="680" height="680" viewBox="0 0 680 680" fill="none" xmlns="http://www.w3.org/2000/svg">
<rect width="680" height="680" rx="148" fill="url(#paint0_linear_3_2570)"/>
<g filter="url(#filter0_i_3_2570)">
<path d="M549.602 578.445C554.484 578.476 558.15 579.154 561.913 581.116C562.377 581.468 562.378 581.468 562.852 581.828C563.172 582.061 563.492 582.294 563.822 582.534C566.358 585.054 566.275 587.614 566.271 590.48C566.275 591.132 566.276 591.133 566.28 591.799C566.284 592.716 566.284 593.633 566.281 594.551C566.279 595.948 566.296 597.345 566.313 598.742C566.315 599.636 566.315 600.531 566.314 601.425C566.321 601.839 566.327 602.253 566.334 602.68C566.3 605.742 565.442 608.024 562.808 610.672C559.244 612.81 554.735 613.828 549.802 613.831C549.186 613.832 548.571 613.833 547.937 613.835C546.925 613.834 546.925 613.835 545.893 613.834C545.172 613.835 544.451 613.836 543.708 613.837C541.273 613.84 538.838 613.839 536.402 613.839C534.647 613.84 532.891 613.842 531.136 613.844C526.804 613.847 522.472 613.849 518.14 613.85C512.952 613.852 507.765 613.855 502.577 613.859C490.038 613.868 477.5 613.872 464.961 613.876C459.03 613.878 453.099 613.88 447.168 613.883C426.87 613.89 406.572 613.897 386.274 613.9H380.535C377.333 613.901 374.131 613.902 370.929 613.902C370.293 613.902 369.658 613.902 369.003 613.902C348.396 613.906 327.789 613.916 307.183 613.93C285.4 613.944 263.617 613.953 241.835 613.955H232.879C223.402 613.956 213.924 613.963 204.447 613.971C194.923 613.98 185.398 613.982 175.873 613.978C170.214 613.976 164.555 613.979 158.896 613.988C154.671 613.995 150.446 613.992 146.221 613.986C144.511 613.985 142.801 613.987 141.091 613.992C138.768 613.998 136.445 613.995 134.122 613.988C133.457 613.992 132.792 613.996 132.107 614.001C126.9 613.968 122.157 613.253 117.984 611.253C117.626 610.982 117.268 610.711 116.899 610.431C116.527 610.164 116.155 609.896 115.771 609.62C113.2 606.976 113.199 604.19 113.171 601.192C113.165 600.77 113.159 600.346 113.152 599.911C113.142 599.02 113.135 598.128 113.133 597.237C113.125 595.884 113.091 594.531 113.056 593.179C113.049 592.309 113.044 591.439 113.041 590.569C113.027 590.17 113.014 589.77 113 589.359C113.032 586.417 114.187 584.109 116.899 581.668C120.139 579.791 123.01 578.618 127.548 578.615C128.478 578.613 128.479 578.613 129.428 578.611C130.453 578.612 130.453 578.612 131.499 578.613C132.59 578.612 132.59 578.612 133.703 578.61C136.165 578.607 138.628 578.607 141.09 578.607C142.863 578.606 144.636 578.605 146.409 578.603C150.787 578.599 155.166 578.597 159.544 578.596C164.786 578.595 170.028 578.591 175.27 578.588C187.941 578.579 200.612 578.574 213.283 578.57C219.275 578.568 225.268 578.567 231.26 578.564C251.766 578.557 272.272 578.55 292.778 578.547C294.066 578.547 295.354 578.546 296.642 578.546C297.28 578.546 297.918 578.546 298.576 578.546C301.812 578.545 305.048 578.545 308.283 578.545C309.246 578.545 309.246 578.544 310.229 578.544C331.052 578.54 351.875 578.53 372.698 578.516C394.705 578.502 416.713 578.493 438.72 578.492C441.135 578.492 443.55 578.492 445.965 578.492C446.857 578.492 446.857 578.491 447.767 578.491C457.344 578.49 466.922 578.483 476.5 578.474C486.123 578.466 495.747 578.464 505.37 578.468C511.09 578.47 516.81 578.467 522.529 578.458C526.797 578.451 531.065 578.455 535.332 578.461C537.061 578.462 538.79 578.459 540.519 578.454C542.864 578.448 545.209 578.452 547.555 578.459C548.23 578.454 548.906 578.45 549.602 578.445ZM179.25 491.269C208.184 491.269 208.184 491.269 218.139 492.658C219.138 492.792 219.138 492.793 220.158 492.93C258.584 498.205 294.092 513.199 325.083 536.408C322.578 539.454 319.946 542.272 317.141 545.046C314.926 547.237 312.738 549.438 310.674 551.773C310.314 552.178 309.954 552.584 309.584 553.001C308.375 554.427 308.375 554.427 307.554 556.069C306.397 558.048 305.376 559.304 303.556 560.714C299.575 561.643 295.66 561.505 291.593 561.424C290.368 561.422 289.142 561.423 287.917 561.427C284.598 561.428 281.28 561.391 277.962 561.347C274.491 561.308 271.02 561.305 267.549 561.298C260.98 561.278 254.411 561.227 247.842 561.164C238.963 561.081 230.083 561.047 221.204 561.011C207.219 560.952 193.235 560.827 179.25 560.714V491.269ZM311.777 66.3553C315.588 62.2515 331.773 50.6586 337.78 54.9295C338.183 55.4446 338.179 55.7206 338.147 56.3797C337.946 57.2562 337.661 57.5566 337.02 58.1795C331.812 63.4912 329.11 70.8771 329.132 78.2342C329.132 78.3722 329.132 78.5109 329.132 78.6531C329.15 83.6921 330.384 88.221 332.795 92.6346C332.905 92.8422 333.016 93.0496 333.13 93.2635C335.447 97.4339 338.954 100.805 342.964 103.35C343.08 103.426 343.197 103.501 343.317 103.579C349.292 107.414 357.519 108.812 364.46 107.324C364.739 107.258 365.018 107.19 365.296 107.121C365.524 107.067 365.524 107.066 365.757 107.011C370.966 105.731 375.527 103.143 379.365 99.4412C379.959 98.8845 380.109 98.7985 380.923 98.7234C381.646 98.7855 381.647 98.7854 382.12 99.0955C382.983 100.384 382.551 101.88 382.27 103.301C382.225 103.526 382.18 103.751 382.134 103.983C380.55 111.546 376.968 118.533 371.562 124.092C371.267 124.397 370.975 124.706 370.684 125.014C363.941 132.049 353.767 136.663 343.983 136.945C343.16 136.961 342.337 136.963 341.514 136.961C346.428 138.193 349.738 142.084 353.165 145.653C356.865 149.467 360.622 153.101 364.667 156.548C365.683 157.44 365.684 157.441 366.721 158.351C383.858 173.144 403.079 184.263 422.989 194.881C438.3 203.065 452.138 212.557 464.667 224.603C465.047 224.964 465.426 225.325 465.817 225.696C471.566 231.176 476.614 236.968 481.334 243.353C481.774 243.944 482.214 244.535 482.668 245.143C494.012 260.858 502.377 278.862 504.814 298.171C505.592 304.521 505.592 304.521 509.589 309.282C510.638 309.941 511.689 310.6 512.745 311.248C515.377 313.081 517.578 315.433 519.832 317.702C520.34 318.213 520.848 318.724 521.371 319.251C540.029 338.383 550.942 364.438 550.861 391.188C550.862 391.917 550.863 392.647 550.863 393.398C550.864 395.824 550.861 398.249 550.857 400.675C550.857 402.42 550.857 404.166 550.857 405.912C550.858 409.661 550.855 413.411 550.852 417.16C550.846 422.581 550.845 428.002 550.844 433.423C550.842 442.219 550.838 451.016 550.831 459.812C550.825 468.354 550.819 476.896 550.816 485.437C550.816 485.964 550.816 486.492 550.815 487.035C550.815 489.679 550.814 492.324 550.813 494.969C550.806 516.883 550.794 538.799 550.778 560.714H518.834C518.82 555.488 518.806 550.262 518.792 544.879C518.747 528.129 518.696 511.379 518.64 494.63C518.631 492.025 518.622 489.42 518.613 486.815C518.612 486.297 518.61 485.778 518.608 485.244C518.581 476.865 518.558 468.485 518.537 460.106C518.515 451.499 518.489 442.89 518.457 434.282C518.438 428.978 518.422 423.673 518.412 418.368C518.404 414.29 518.388 410.211 518.37 406.133C518.364 404.468 518.36 402.802 518.358 401.138C518.347 390.018 518.284 379.276 514.58 368.657C514.367 368.038 514.155 367.417 513.936 366.779C507.652 349.172 495.384 335.981 478.772 327.858C475.629 326.257 475.628 326.256 474.39 324.603C474.133 322.78 474.133 322.779 474.132 320.586C474.122 319.779 474.112 318.972 474.102 318.141C474.096 317.28 474.09 316.419 474.085 315.532C473.534 291.363 463.573 270.839 447.319 253.219C446.098 251.884 444.939 250.522 443.79 249.126C441.495 246.444 438.923 244.196 436.194 241.964C435.56 241.442 434.925 240.92 434.271 240.383C425.043 233.035 414.85 227.418 404.476 221.863C396.642 217.655 388.969 213.186 381.333 208.631C380.807 208.319 380.281 208.007 379.739 207.685C369.96 201.855 360.687 195.201 352.036 187.798C351.673 187.487 351.31 187.177 350.937 186.857C349.421 185.556 347.911 184.247 346.41 182.929C345.947 182.545 345.483 182.16 345.005 181.764C344.635 181.447 344.266 181.129 343.885 180.802C341.573 179.77 339.34 179.72 336.889 180.159C334.772 181.431 334.771 181.431 332.896 183.327C332.111 184.037 331.324 184.744 330.533 185.448C330.107 185.829 329.681 186.211 329.242 186.603C311.856 201.637 291.448 213.187 271.308 224.039C260.667 229.791 250.731 235.917 241.75 244.048C241.148 244.567 240.544 245.086 239.924 245.621C222.492 260.789 210.354 280.943 206.333 303.769C206.154 304.565 206.154 304.566 205.972 305.379C205.615 307.377 205.539 309.252 205.517 311.281C205.492 312.42 205.492 312.421 205.467 313.583C205.437 315.174 205.415 316.766 205.401 318.357C205.382 319.116 205.363 319.875 205.343 320.656C205.333 321.347 205.323 322.037 205.312 322.749C204.845 325.104 204.016 325.892 202.166 327.381C200.41 328.286 198.667 329.126 196.871 329.941C191.835 332.346 188.036 335.186 184.111 339.186C183.587 339.671 183.062 340.155 182.521 340.654C170.145 352.286 162.263 369.957 161.062 386.875C161.01 388.787 160.997 390.695 161.001 392.608C160.997 393.332 160.992 394.057 160.988 394.803C160.977 397.207 160.975 399.611 160.973 402.015C160.966 403.747 160.96 405.48 160.952 407.212C160.937 410.929 160.926 414.647 160.919 418.365C160.909 423.74 160.891 429.116 160.871 434.491C160.84 443.214 160.815 451.938 160.793 460.661C160.772 469.13 160.747 477.6 160.72 486.069C160.717 486.853 160.717 486.853 160.715 487.653C160.706 490.276 160.698 492.9 160.689 495.522C160.618 517.253 160.556 538.983 160.5 560.714H129.25C129.203 537.825 129.166 514.936 129.144 492.047C129.141 489.34 129.138 486.632 129.136 483.925C129.135 483.386 129.134 482.846 129.134 482.291C129.125 473.585 129.108 464.879 129.089 456.173C129.069 447.228 129.058 438.282 129.054 429.337C129.051 423.825 129.041 418.313 129.024 412.802C129.012 408.563 129.011 404.324 129.014 400.085C129.013 398.355 129.009 396.625 129.001 394.895C128.946 382.52 129.761 371.217 133.807 359.412C134.046 358.708 134.286 358.003 134.533 357.278C139.994 341.815 149.077 328.614 160.5 316.964C160.999 316.437 161.499 315.911 162.014 315.369C165.586 311.668 165.586 311.667 167.84 310.424C170.566 308.814 172.533 307.388 173.487 304.247C174.036 301.514 174.403 298.771 174.762 296.008C178.167 270.346 192.878 247.145 210.5 228.769C210.85 228.401 211.2 228.032 211.561 227.652C225.042 213.502 241.461 203.185 258.59 194.004C279.421 182.812 299.191 170.479 316.652 154.434C317.991 153.21 319.359 152.034 320.743 150.862C324.009 148.038 326.999 144.926 329.998 141.824C330.6 141.21 330.6 141.21 331.214 140.584C331.75 140.03 331.75 140.029 332.297 139.465C334.233 137.782 336.026 137.035 338.438 136.875C329.084 136.285 320.545 132.609 313.454 126.37C313.271 126.212 313.089 126.055 312.9 125.892C312.019 125.122 311.194 124.338 310.44 123.443C310.161 123.111 309.873 122.785 309.582 122.463C302.544 114.605 299.196 103.777 299.721 93.3494C300.309 83.913 303.925 75.0718 310.264 68.0272C310.364 67.9154 310.464 67.8035 310.567 67.6883C310.876 67.345 311.187 67.0034 311.498 66.6629C311.59 66.5615 311.682 66.4598 311.777 66.3553ZM500.084 560.714H327.861C332.437 555.376 337.117 550.689 342.444 546.131C343.078 545.574 343.712 545.017 344.365 544.443C388.323 506.124 442.741 491.269 500.084 491.269V560.714ZM363.745 418.833C364.659 418.376 365.294 418.413 366.308 418.513C368.145 419.475 368.544 421.15 369.189 422.997C371.754 430.329 375.155 436.155 382.381 439.711C383.943 440.413 385.467 440.862 387.125 441.252C389.613 441.876 389.614 441.876 390.468 442.793C391.075 444.032 391.211 444.694 390.968 446.056C389.891 447.806 388.751 448.359 386.805 448.938C380.313 450.892 375.424 454.302 372.053 460.348C370.712 462.86 369.699 465.405 368.923 468.146C368.46 469.696 367.937 470.64 366.628 471.678C365.369 471.88 364.671 471.817 363.525 471.258C362.406 469.956 362.03 468.491 361.504 466.874C359.223 460.116 355.985 454.406 349.474 450.96C347.538 450.024 345.587 449.39 343.496 448.893C341.928 448.494 341.058 447.959 340.046 446.696C339.639 445.812 339.61 445.096 339.726 444.135C340.509 442.691 341.54 441.82 343.101 441.332C343.642 441.192 344.185 441.059 344.729 440.931C350.669 439.336 355.063 435.828 358.31 430.598C359.778 428.051 360.8 425.41 361.685 422.609C362.166 421.118 362.627 419.982 363.745 418.833ZM285.847 375.991C287.065 375.382 287.911 375.432 289.263 375.564C291.713 376.848 292.245 379.08 293.106 381.543C296.526 391.319 301.06 399.087 310.694 403.828C312.777 404.764 314.809 405.364 317.02 405.884C320.337 406.716 320.338 406.715 321.477 407.938C322.287 409.591 322.469 410.472 322.145 412.289C320.708 414.622 319.187 415.359 316.593 416.132C307.937 418.737 301.418 423.283 296.923 431.345C295.135 434.694 293.785 438.087 292.75 441.742C292.133 443.809 291.436 445.068 289.69 446.451C288.011 446.721 287.08 446.636 285.553 445.89C284.06 444.156 283.559 442.202 282.857 440.046C279.816 431.035 275.499 423.423 266.817 418.828C264.236 417.58 261.635 416.735 258.847 416.072C256.757 415.539 255.595 414.826 254.246 413.142C253.703 411.963 253.665 411.008 253.819 409.726C254.864 407.802 256.239 406.641 258.32 405.99C259.042 405.804 259.767 405.626 260.492 405.456C268.412 403.328 274.27 398.65 278.599 391.678C280.557 388.281 281.92 384.76 283.1 381.025C283.742 379.037 284.357 377.524 285.847 375.991ZM336.593 251.941C338.725 250.875 340.206 250.961 342.571 251.193C346.86 253.44 347.79 257.347 349.297 261.656C355.281 278.764 363.216 292.358 380.077 300.655C383.723 302.294 387.278 303.343 391.146 304.252C396.952 305.708 396.953 305.708 398.946 307.848C400.364 310.74 400.681 312.282 400.113 315.461C397.6 319.545 394.939 320.834 390.398 322.186C375.25 326.746 363.844 334.701 355.977 348.809C352.848 354.671 350.484 360.609 348.674 367.005C347.594 370.622 346.373 372.824 343.318 375.245C340.38 375.717 338.751 375.568 336.079 374.263C333.467 371.227 332.59 367.808 331.362 364.035C326.04 348.267 318.484 334.946 303.291 326.904C298.774 324.72 294.223 323.243 289.344 322.083C285.686 321.15 283.654 319.902 281.293 316.956C280.342 314.892 280.276 313.22 280.546 310.977C282.374 307.609 284.779 305.577 288.421 304.438C289.684 304.113 290.952 303.802 292.222 303.505C306.081 299.782 316.334 291.594 323.909 279.392C327.336 273.448 329.72 267.287 331.785 260.751C332.91 257.27 333.985 254.624 336.593 251.941ZM339.16 289.588C338.552 290.49 337.945 291.393 337.339 292.297C332.646 299.541 327.452 305.64 320.058 310.231C318.822 310.943 317.6 311.68 316.415 312.473V313.968C325.335 318.427 332.506 326.138 337.386 334.705C338.082 336.032 338.802 337.349 339.581 338.629H341.075C345.333 329.23 352.558 322.058 360.926 316.304C362.844 315.048 362.844 315.048 364.242 313.968V312.473C363.219 311.739 362.188 311.013 361.129 310.331C354.566 306.135 349.664 301.185 345.326 294.679C343.789 292.264 342.171 290.01 340.328 287.812C339.931 288.416 339.545 289.002 339.16 289.588Z" fill="#F2F8ED"/>
</g>
<defs>
<filter id="filter0_i_3_2570" x="113" y="53.9995" width="453.334" height="564.001" filterUnits="userSpaceOnUse" color-interpolation-filters="sRGB">
<feFlood flood-opacity="0" result="BackgroundImageFix"/>
<feBlend mode="normal" in="SourceGraphic" in2="BackgroundImageFix" result="shape"/>
<feColorMatrix in="SourceAlpha" type="matrix" values="0 0 0 0 0 0 0 0 0 0 0 0 0 0 0 0 0 0 127 0" result="hardAlpha"/>
<feOffset dy="4"/>
<feGaussianBlur stdDeviation="10.5"/>
<feComposite in2="hardAlpha" operator="arithmetic" k2="-1" k3="1"/>
<feColorMatrix type="matrix" values="0 0 0 0 0 0 0 0 0 0 0 0 0 0 0 0 0 0 0.25 0"/>
<feBlend mode="normal" in2="shape" result="effect1_innerShadow_3_2570"/>
</filter>
<linearGradient id="paint0_linear_3_2570" x1="340" y1="0" x2="340" y2="680" gradientUnits="userSpaceOnUse">
<stop stop-color="#488132"/>
<stop offset="1" stop-color="#2C6218"/>
</linearGradient>
</defs>
</svg>
